<svg xmlns="http://www.w3.org/2000/svg" viewBox="0 0 24 24"><rect width="24" height="24" rx="5" fill="#2B2B36"/><ellipse cx="12" cy="13" rx="4.3" ry="5" fill="#fff"/><path d="M9.5 8.5c0-1.6 1-2.8 2.5-2.8s2.5 1.2 2.5 2.8c0 1.3-.6 2-1.2 2.6-.5-.4-1.7-.4-2.5 0-.7-.6-1.3-1.3-1.3-2.6z" fill="#111"/><circle cx="10.7" cy="8.4" r="0.7" fill="#fff"/><circle cx="13.3" cy="8.4" r="0.7" fill="#fff"/><path d="M11 9.6c.4.4 1.6.4 2 0l-1 .9z" fill="#F5A623"/><path d="M9.6 18l-1.4 2.2M14.4 18l1.4 2.2" stroke="#F5A623" stroke-width="1.4" stroke-linecap="round"/></svg>
